HIERARCHY
ROOT Hips
{
	OFFSET 0.000000 0.000000 0.000000
	CHANNELS 6 Xposition Yposition Zposition Zrotation Yrotation Xrotation 
	JOINT LHipJoint
	{
		OFFSET 0.000000 0.000000 0.000000
		CHANNELS 3 Zrotation Yrotation Xrotation
		JOINT LeftUpLeg
		{
			OFFSET 1.363060 -1.794630 0.839290
			CHANNELS 3 Zrotation Yrotation Xrotation
			JOINT LeftLeg
			{
				OFFSET 2.448110 -6.726130 0.000000
				CHANNELS 3 Zrotation Yrotation Xrotation
				JOINT LeftFoot
				{
					OFFSET 2.562200 -7.039590 0.000000
					CHANNELS 3 Zrotation Yrotation Xrotation
					JOINT LeftToeBase
					{
						OFFSET 0.157640 -0.433110 2.322550
						CHANNELS 3 Zrotation Yrotation Xrotation
						End Site
						{
							OFFSET 0.000000 0.000000 0.000000
						}
					}
				}
			}
		}
	}
	JOINT RHipJoint
	{
		OFFSET 0.000000 0.000000 0.000000
		CHANNELS 3 Zrotation Yrotation Xrotation
		JOINT RightUpLeg
		{
			OFFSET -1.305520 -1.794630 0.839290
			CHANNELS 3 Zrotation Yrotation Xrotation
			JOINT RightLeg
			{
				OFFSET -2.542530 -6.985550 0.000000
				CHANNELS 3 Zrotation Yrotation Xrotation
				JOINT RightFoot
				{
					OFFSET -2.568260 -7.056230 0.000000
					CHANNELS 3 Zrotation Yrotation Xrotation
					JOINT RightToeBase
					{
						OFFSET -0.164730 -0.452590 2.363150
						CHANNELS 3 Zrotation Yrotation Xrotation
						End Site
						{
							OFFSET 0.000000 0.000000 0.000000
						}
					}
				}
			}
		}
	}
	JOINT LowerBack
	{
		OFFSET 0.000000 0.000000 0.000000
		CHANNELS 3 Zrotation Yrotation Xrotation
		JOINT Spine
		{
			OFFSET 0.028270 2.035590 -0.193380
			CHANNELS 3 Zrotation Yrotation Xrotation
			JOINT Spine1
			{
				OFFSET 0.056720 2.048850 -0.042750
				CHANNELS 3 Zrotation Yrotation Xrotation
				JOINT Neck
				{
					OFFSET 0.000000 0.000000 0.000000
					CHANNELS 3 Zrotation Yrotation Xrotation
					JOINT Neck1
					{
						OFFSET -0.054170 1.746240 0.172020
						CHANNELS 3 Zrotation Yrotation Xrotation
						JOINT Head
						{
							OFFSET 0.104070 1.761360 -0.123970
							CHANNELS 3 Zrotation Yrotation Xrotation
							End Site
							{
								OFFSET 0.000000 0.000000 0.000000
							}
						}
					}
				}
				JOINT LeftShoulder
				{
					OFFSET 0.000000 0.000000 0.000000
					CHANNELS 3 Zrotation Yrotation Xrotation
					JOINT LeftArm
					{
						OFFSET 3.362410 1.200890 -0.311210
						CHANNELS 3 Zrotation Yrotation Xrotation
						JOINT LeftForeArm
						{
							OFFSET 4.983000 -0.000000 -0.000000
							CHANNELS 3 Zrotation Yrotation Xrotation
							JOINT LeftHand
							{
								OFFSET 3.483560 -0.000000 -0.000000
								CHANNELS 3 Zrotation Yrotation Xrotation
								JOINT LeftFingerBase
								{
									OFFSET 0.000000 0.000000 0.000000
									CHANNELS 3 Zrotation Yrotation Xrotation
									JOINT LeftHandIndex1
									{
										OFFSET 0.715260 -0.000000 -0.000000
										CHANNELS 3 Zrotation Yrotation Xrotation
										End Site
										{
											OFFSET 0.000000 0.000000 0.000000
										}
									}
								}
								JOINT LThumb
								{
									OFFSET 0.000000 0.000000 0.000000
									CHANNELS 3 Zrotation Yrotation Xrotation
									End Site
									{
										OFFSET 0.000000 0.000000 0.000000
									}
								}
							}
						}
					}
				}
				JOINT RightShoulder
				{
					OFFSET 0.000000 0.000000 0.000000
					CHANNELS 3 Zrotation Yrotation Xrotation
					JOINT RightArm
					{
						OFFSET -3.136600 1.374050 -0.404650
						CHANNELS 3 Zrotation Yrotation Xrotation
						JOINT RightForeArm
						{
							OFFSET -5.241900 -0.000000 -0.000000
							CHANNELS 3 Zrotation Yrotation Xrotation
							JOINT RightHand
							{
								OFFSET -3.444170 -0.000000 -0.000000
								CHANNELS 3 Zrotation Yrotation Xrotation
								JOINT RightFingerBase
								{
									OFFSET 0.000000 0.000000 0.000000
									CHANNELS 3 Zrotation Yrotation Xrotation
									JOINT RightHandIndex1
									{
										OFFSET -0.622530 -0.000000 -0.000000
										CHANNELS 3 Zrotation Yrotation Xrotation
										End Site
										{
											OFFSET 0.000000 0.000000 0.000000
										}
									}
								}
								JOINT RThumb
								{
									OFFSET 0.000000 0.000000 0.000000
									CHANNELS 3 Zrotation Yrotation Xrotation
									End Site
									{
										OFFSET 0.000000 0.000000 0.000000
									}
								}
							}
						}
					}
				}
			}
		}
	}
}
MOTION
Frames: 4
Frame Time: 0.016667
-0.019167 16.109546 -0.019167 -8.037113 18.317705 -17.943332 -4.953070 -3.253970 -9.880079 -4.369215 -12.293573 -16.860988 -14.999465 16.224711 35.389457 -7.011002 10.903525 2.534890 0.000000 0.000000 0.000000 -7.034528 21.631741 -26.710623 28.074516 -20.982498 44.229772 -0.296402 6.397478 -21.836863 3.323827 5.315081 -13.344185 0.000000 0.000000 0.000000 4.359769 -8.242934 14.143487 7.988971 -7.227005 35.915935 -0.627600 -2.925508 -29.691846 9.905674 -4.390204 -17.769613 -10.499226 -0.883838 10.929633 0.000000 0.000000 0.000000 -5.013543 12.610775 7.318033 -72.652398 -12.665098 -19.642877 -137.563626 -72.972190 -179.825614 0.052685 -1.136416 0.087568 0.045279 -1.143939 -0.000000 0.000000 0.000000 0.000000 0.000000 0.000000 0.000000 -5.275000 -12.591002 2.802456 68.266301 5.058736 16.425138 170.443494 69.249663 175.676297 19.001197 -66.545227 -6.497402 31.583140 -61.118569 0.000000 0.000000 0.000000 0.000000 0.000000 0.000000 0.000000 
-0.014739 16.136250 0.134388 -6.990908 18.311140 -19.712837 2.954619 1.245114 -11.261279 -19.368781 -4.915836 -0.360530 -11.727643 5.937174 14.369189 -2.954053 4.066641 6.046273 0.000000 0.000000 0.000000 -10.006484 18.695585 -28.597221 30.879720 -19.760703 41.764789 3.632387 3.315252 -9.008234 5.127309 6.627032 -21.478973 0.000000 0.000000 0.000000 0.599111 -7.608790 18.081862 13.376172 -8.702080 33.301259 -1.511458 -3.156360 -30.744544 10.546845 -5.325668 -20.094100 -13.732591 -0.913192 13.066287 0.000000 0.000000 0.000000 -7.872273 13.962695 10.326827 -71.904376 -7.533192 -15.100315 -143.016382 -73.638056 -179.366466 -2.847116 -1.031570 0.318312 -2.875558 -1.053425 0.000000 0.000000 0.000000 0.000000 0.000000 0.000000 0.000000 -3.546491 -13.083585 3.124856 63.066433 2.503198 19.131694 170.842141 70.732673 175.989346 15.846139 -62.856344 -4.921544 25.229668 -59.569345 0.000000 0.000000 0.000000 0.000000 0.000000 0.000000 0.000000 
-0.008046 16.164773 0.287335 -6.566822 11.993374 -17.906775 5.653237 1.296479 -7.430627 -19.778563 3.326811 10.878761 -9.005431 -6.626727 -17.508466 -1.044878 7.508901 19.817966 0.000000 0.000000 0.000000 -9.639795 12.676488 -31.485711 28.819058 -22.134262 32.183879 5.423855 -10.954944 11.350561 9.117430 5.163631 -34.752482 0.000000 0.000000 0.000000 -3.352070 -5.369074 20.233169 21.981436 -8.252140 27.696615 -4.318763 -1.607023 -29.918961 10.752355 -6.339449 -21.601988 -17.733907 -0.834873 14.920880 0.000000 0.000000 0.000000 -10.756054 16.441109 12.385992 -70.600070 -1.891332 -7.791272 -149.941288 -76.896666 -179.221856 -10.245247 3.246539 0.389431 -10.267449 3.211679 -0.000000 0.000000 0.000000 0.000000 0.000000 0.000000 0.000000 -2.787143 -12.128511 4.305385 58.182582 0.940029 21.701413 170.699063 72.281191 176.506448 12.490100 -56.513209 -3.093409 17.862427 -55.132581 -0.000000 0.000000 0.000000 0.000000 0.000000 0.000000 0.000000 
-0.010960 16.186177 0.427320 -7.569227 8.972032 -15.209077 4.956705 2.935396 -4.305822 -17.468667 2.899193 9.972428 -6.524975 -10.021872 -26.622739 -0.419663 10.000495 24.607079 0.000000 0.000000 0.000000 -7.195209 9.336649 -30.675017 29.521938 -20.280079 27.150642 3.006225 -12.877318 16.913321 9.722428 5.916433 -37.827925 0.000000 0.000000 0.000000 -6.166653 -5.148907 19.126804 30.103714 -8.699890 25.391848 -5.956123 -0.808728 -31.001194 14.005192 -8.216073 -26.651165 -25.083920 -0.255022 19.415619 0.000000 0.000000 0.000000 -13.097363 19.494269 12.988786 -70.277998 0.380482 -7.180936 -150.667584 -77.151882 -179.247298 -11.998904 4.471358 0.375762 -12.022051 4.425175 -0.000000 0.000000 0.000000 0.000000 0.000000 0.000000 0.000000 -4.847838 -9.903081 6.219728 56.253458 0.222247 22.847319 170.032432 72.504407 176.724023 11.043883 -51.387648 -2.369914 14.578865 -50.627364 -0.000000 0.000000 0.000000 0.000000 0.000000 0.000000 0.000000 
